<svg width="275" height="274" viewBox="0 0 275 274" fill="none" xmlns="http://www.w3.org/2000/svg">
<path d="M240.69 137C240.69 192.74 194.84 238 138.19 238C81.5406 238 35.6904 192.74 35.6904 137C35.6904 81.2596 81.5406 36 138.19 36C194.84 36 240.69 81.2596 240.69 137Z" stroke="black" stroke-width="6"/>
<path d="M136.192 132.72L79.2002 78.7679L118.851 132.991L136.192 132.72Z" fill="white" stroke="black"/>
<path d="M133.264 136.742L79.9922 194.37L133.741 154.078L133.264 136.742Z" fill="white" stroke="black"/>
<path d="M136.691 137.873L194.153 191.323L154.028 137.45L136.691 137.873Z" fill="white" stroke="black"/>
<path d="M142.451 134.108L196.672 77.3724L142.262 116.766L142.451 134.108Z" fill="white" stroke="black"/>
<path d="M142.691 134.735L196.912 78L162.271 136.287L142.691 134.735Z" fill="black" stroke="black"/>
<path d="M136.924 138L195.039 190.74L135.878 157.614L136.924 138Z" fill="black" stroke="black"/>
<path d="M135.787 137.579L80.3828 193.159L116.244 135.615L135.787 137.579Z" fill="black" stroke="black"/>
<path d="M133.228 135.769L79.6904 78.3884L135.898 116.31L133.228 135.769Z" fill="black" stroke="black"/>
<path d="M138.19 137V1L158.69 115.5L138.19 137Z" fill="black" stroke="black"/>
<path d="M137.585 137.059L137.19 273.059L117.023 158.5L137.585 137.059Z" fill="black" stroke="black"/>
<path d="M138.146 135.409L274.113 138.405L159.158 157.764L138.146 135.409Z" fill="black" stroke="black"/>
<path d="M137.897 136.383L1.89746 136.265L116.416 114.477L137.897 136.383Z" fill="black" stroke="black"/>
<path d="M138.19 137V1L117.19 115.5L138.19 137Z" fill="white" stroke="white"/>
<path d="M137.914 137L137.69 273L158.879 158.534L137.914 137Z" fill="white" stroke="white"/>
<path d="M137.739 136.318L273.739 136.147L159.213 115.291L137.739 136.318Z" fill="white" stroke="white"/>
<path d="M136.999 136.302L1 136.767L115.571 157.375L136.999 136.302Z" fill="white" stroke="white"/>
</svg>
